# xmcd CD database file
#
# Track frame offsets:
#	150
#	13819
#	30012
#	48802
#	64499
#	78373
#	97101
#	112111
#	126174
#	140451
#	158787
#	172852
#
# Disc length: 2472 seconds
#
# Revision: 2
# Processed by: cddbd v1.4PL0 Copyright (c) Steve Scherf et al.
# Submitted via: CDex 1.40Release
#
DISCID=9609a60c
DTITLE=Schuld and Stamer - You got the bread...we got the jam!
DYEAR=1998
DGENRE=Blues
TTITLE0=Voodoo Music
TTITLE1=How Long
TTITLE2=Going Down Slow
TTITLE3=Backwater Blues
TTITLE4=This Train
TTITLE5=Here I Am
TTITLE6=Bourgeois Blues
TTITLE7=Down In Mississippi
TTITLE8=Trouble In Mind
TTITLE9=Easy Rider Blues
TTITLE10=Worried Man Blues
TTITLE11=Dark Was The Night
EXTD=YEAR: 1998 ID3G: 0
EXTT0=
EXTT1=
EXTT2=
EXTT3=
EXTT4=
EXTT5=
EXTT6=
EXTT7=
EXTT8=
EXTT9=
EXTT10=
EXTT11=
PLAYORDER=
